<mxfile host="Electron" agent="Mozilla/5.0 (Windows NT 10.0; Win64; x64) AppleWebKit/537.36 (KHTML, like Gecko) draw.io/26.2.15 Chrome/134.0.6998.205 Electron/35.2.1 Safari/537.36" version="26.2.15">
  <diagram name="Page-1" id="oEoZgn6ZBsEzimq_PpbW">
    <mxGraphModel dx="800" dy="537" grid="1" gridSize="10" guides="1" tooltips="1" connect="1" arrows="1" fold="1" page="1" pageScale="1" pageWidth="850" pageHeight="1100" math="0" shadow="0">
      <root>
        <mxCell id="0" />
        <mxCell id="1" parent="0" />
        <mxCell id="aJxhI9fagRG6oJlo9DGJ-4" value="&lt;font style=&quot;font-size: 14px;&quot;&gt;loan&lt;/font&gt;" style="rhombus;whiteSpace=wrap;html=1;" vertex="1" parent="1">
          <mxGeometry x="330" y="80" width="100" height="80" as="geometry" />
        </mxCell>
        <mxCell id="aJxhI9fagRG6oJlo9DGJ-1" value="&lt;font style=&quot;font-size: 15px;&quot;&gt;Author_ID&lt;/font&gt;&lt;div&gt;&lt;font style=&quot;font-size: 15px;&quot;&gt;Title&lt;/font&gt;&lt;/div&gt;&lt;div&gt;&lt;font style=&quot;font-size: 15px;&quot;&gt;Previluublished&lt;/font&gt;&lt;/div&gt;&lt;div&gt;&lt;font style=&quot;font-size: 15px;&quot;&gt;ISBN&lt;/font&gt;&lt;/div&gt;" style="whiteSpace=wrap;html=1;aspect=fixed;align=left;" vertex="1" parent="1">
          <mxGeometry x="130" y="80" width="110" height="110" as="geometry" />
        </mxCell>
        <mxCell id="aJxhI9fagRG6oJlo9DGJ-2" value="&lt;b&gt;&lt;font style=&quot;font-size: 17px;&quot;&gt;AUTHT&lt;/font&gt;&lt;/b&gt;" style="rounded=0;whiteSpace=wrap;html=1;" vertex="1" parent="1">
          <mxGeometry x="129" y="42" width="111" height="40" as="geometry" />
        </mxCell>
        <mxCell id="aJxhI9fagRG6oJlo9DGJ-3" value="" style="endArrow=none;html=1;rounded=0;" edge="1" parent="1">
          <mxGeometry width="50" height="50" relative="1" as="geometry">
            <mxPoint x="240" y="120" as="sourcePoint" />
            <mxPoint x="330" y="120" as="targetPoint" />
            <Array as="points">
              <mxPoint x="300" y="120" />
            </Array>
          </mxGeometry>
        </mxCell>
        <mxCell id="aJxhI9fagRG6oJlo9DGJ-9" value="" style="shape=umlLifeline;perimeter=lifelinePerimeter;whiteSpace=wrap;html=1;container=1;dropTarget=0;collapsible=0;recursiveResize=0;outlineConnect=0;portConstraint=eastwest;newEdgeStyle={&quot;curved&quot;:0,&quot;rounded&quot;:0};participant=umlEntity;rotation=90;size=40;" vertex="1" parent="1">
          <mxGeometry x="446.25" y="78.75" width="40" height="82.5" as="geometry" />
        </mxCell>
        <mxCell id="aJxhI9fagRG6oJlo9DGJ-10" value="&lt;span style=&quot;font-size: 15px;&quot;&gt;Book_ID&lt;/span&gt;&lt;div&gt;&lt;span style=&quot;font-size: 15px;&quot;&gt;Year_Published&lt;/span&gt;&lt;/div&gt;&lt;div&gt;&lt;span style=&quot;font-size: 15px;&quot;&gt;ISBN&lt;/span&gt;&lt;/div&gt;" style="whiteSpace=wrap;html=1;aspect=fixed;align=left;" vertex="1" parent="1">
          <mxGeometry x="509" y="76" width="110" height="110" as="geometry" />
        </mxCell>
        <mxCell id="aJxhI9fagRG6oJlo9DGJ-11" value="&lt;span style=&quot;font-size: 17px;&quot;&gt;&lt;b&gt;Category&lt;/b&gt;&lt;/span&gt;" style="rounded=0;whiteSpace=wrap;html=1;" vertex="1" parent="1">
          <mxGeometry x="508" y="36" width="111" height="40" as="geometry" />
        </mxCell>
      </root>
    </mxGraphModel>
  </diagram>
</mxfile>
